<svg width="203" height="47" viewBox="0 0 203 47" fill="none" xmlns="http://www.w3.org/2000/svg">
<g clip-path="url(#clip0_579_9168)">
<path d="M44.5469 42.2681V38.8166C42.6111 41.0236 39.9918 43.0605 36.4626 43.0605C32.3061 43.0605 29.2881 40.1182 29.2881 35.8744C29.2881 31.0083 32.8185 28.9715 38.2272 25.8591L44.5469 22.1245V19.1251C44.5469 16.1258 42.8386 15.0515 41.074 15.0515C38.7971 15.0515 36.1202 17.0324 31.3376 21.3893L32.3061 14.3162C34.6406 13.6369 38.2847 12.9016 41.7001 12.9016C49.5007 12.9016 53.5997 14.9956 53.5997 22.1816V35.8744C53.5997 38.4776 53.7135 39.5519 55.3081 42.2681H44.5469ZM41.0165 38.4763C42.4399 38.4763 43.6921 37.7411 44.5469 37.0058V25.7461L41.9276 26.3683C38.967 27.1607 37.9985 28.9144 37.9985 32.8191C37.9985 37.176 39.3082 38.4776 41.0165 38.4776V38.4763Z" fill="black"/>
<path d="M68.632 14.8813C66.9812 14.8813 65.7852 15.8998 65.7852 17.5404C65.7852 19.5772 67.1511 20.4826 71.82 24.1042C75.6916 27.0465 78.1972 29.4795 78.1972 33.1011C78.1972 39.3259 72.1049 43.0592 66.8675 43.0592C64.1919 43.0592 61.2875 42.7202 58.8969 41.8707L57.9858 34.1754C64.3056 40.004 66.2414 41.0224 68.1771 41.0224C70.1129 41.0224 71.6501 39.6649 71.6501 37.91C71.6501 35.9291 70.5678 34.6846 65.9564 31.2903C60.6615 27.4427 59.1806 24.5004 59.1806 21.5582C59.1806 16.1829 64.0206 12.9004 69.828 12.9004C72.1049 12.9004 74.8955 13.4096 76.3189 13.9759L77.0588 21.1061C72.5611 16.5791 70.5678 14.8813 68.632 14.8813Z" fill="black"/>
<path d="M80.3032 16.409L92.1454 12.9004V16.8052L94.3661 15.6737C96.5293 14.4851 99.4899 12.9016 102.052 12.9016C105.07 12.9016 107.062 14.5994 107.803 16.9753L110.309 15.6737C112.529 14.4851 115.49 12.9016 117.995 12.9016C121.981 12.9016 124.088 15.788 124.088 19.2953V35.8744C124.088 38.4776 124.201 39.5519 125.796 42.2681H113.783C114.979 39.3259 115.035 38.4205 115.035 35.8744V19.9747C115.035 17.9378 114.295 17.0883 112.814 17.0883C111.961 17.0883 110.593 17.4845 108.43 18.3328L108.089 18.4458C108.147 18.729 108.147 19.0121 108.147 19.2941V35.8732C108.147 38.4192 108.204 39.3246 109.399 42.2669H97.784C98.98 39.3246 99.0362 38.4192 99.0362 35.8732V19.9734C99.0362 17.9366 98.2964 17.0871 96.8155 17.0871C95.962 17.0871 94.5948 17.4833 92.4316 18.3315L92.1466 18.4446V35.8719C92.1466 38.418 92.2603 39.3234 93.3988 42.2656H81.328C82.9788 39.5494 83.0363 38.4739 83.0363 35.8719V21.783C83.0363 20.2554 82.8089 19.6331 80.3032 16.4077V16.409Z" fill="black"/>
<path d="M127.958 16.409L139.8 12.9004V35.8732C139.8 38.4763 139.914 39.5506 141.509 42.2668H128.983C130.634 39.5506 130.691 38.4751 130.691 35.8732V21.7842C130.691 20.2566 130.464 19.6344 127.958 16.409ZM130.52 4.6959C130.52 2.14986 132.797 0 135.36 0C137.923 0 140.256 2.14986 140.256 4.6959C140.256 7.24195 137.979 9.44893 135.36 9.44893C132.741 9.44893 130.52 7.29908 130.52 4.6959Z" fill="black"/>
<path d="M143.729 16.409L155.571 12.9004V16.8052L157.621 15.7867C160.011 14.5423 163.257 12.9004 165.99 12.9004C170.033 12.9004 172.138 15.7867 172.138 19.2941V35.8732C172.138 38.4763 172.252 39.5507 173.847 42.2669H161.492C163.029 39.6078 163.087 38.4751 163.087 35.8732V20.0864C163.087 17.8795 162.176 17.0871 160.696 17.0871C159.614 17.0871 158.304 17.4261 155.914 18.3315L155.572 18.4446V35.8719C155.572 38.4751 155.572 39.5494 157.167 42.2656H144.755C146.406 39.5494 146.463 38.4739 146.463 35.8719V21.783C146.463 20.2554 146.236 19.6331 143.73 16.4077L143.729 16.409Z" fill="black"/>
<path d="M176.41 28.235C176.41 19.4642 183.186 12.9004 190.531 12.9004C197.875 12.9004 201.975 18.2198 203 24.0471C197.193 24.8395 191.442 25.6877 185.634 26.7633C185.862 33.7792 189.165 37.5138 194.744 37.5138C197.819 37.5138 200.609 36.2694 203 34.3455V35.8732C200.438 40.004 195.997 43.0592 190.474 43.0592C182.275 43.0592 176.411 36.9487 176.411 28.2338L176.41 28.235ZM185.69 23.369H194.117C193.662 18.2769 192.239 14.9944 190.018 14.9944C187.797 14.9944 186.089 17.2013 185.692 23.369H185.69Z" fill="black"/>
<path d="M27.4595 2.65906C25.1813 5.82733 25.125 6.90288 25.125 9.50606V26.7807L25.09 26.7894C25.09 27.7904 25.09 29.0994 25.0875 30.8543C25.0863 33.4041 24.8838 35.9365 24.0216 38.3646C22.3907 42.9611 19.209 45.8114 14.3476 46.7069C9.55878 47.5887 5.19732 46.4299 1.13205 43.9087C1.04707 43.8566 0.964591 43.8032 0.879611 43.7522L0.482207 43.4032L0.499703 43.366L0.480957 43.356C0.5122 43.284 0.569686 43.1797 0.63467 43.0667C0.734646 42.8878 0.852118 42.6903 0.904605 42.5786C2.21554 39.7531 4.19132 36.6544 7.04813 34.6871C5.64847 34.6709 4.2563 34.8808 2.92037 35.3043C5.97839 31.3238 10.7647 29.0671 15.761 29.1988C16.1047 29.2075 16.4484 29.2274 16.7933 29.2596L16.802 29.2758C16.4484 29.3081 16.101 29.3515 15.761 29.4087C12.9392 29.8645 10.5398 31.0853 8.69773 32.7061C10.1024 33.1868 11.4083 33.9146 12.5543 34.856C10.676 35.1131 8.56652 35.9166 6.72696 37.1983C4.62246 38.6639 2.87163 40.7554 2.22804 43.3697C2.47173 43.4256 2.71917 43.4666 2.96786 43.4889H2.98161C3.17281 43.52 3.36901 43.5498 3.57022 43.5746C3.62395 43.5808 3.67769 43.5883 3.73518 43.5957C3.96262 43.6231 4.19382 43.6467 4.43251 43.6653C5.38603 43.746 6.3458 43.7311 7.29682 43.6243C7.68048 43.5796 8.06164 43.5163 8.43905 43.433C8.55402 43.4094 8.66774 43.3784 8.78146 43.3498C8.98891 43.2927 9.19761 43.2356 9.40382 43.166C9.70874 43.0654 10.0062 42.9474 10.2961 42.8133L10.3286 42.7934C11.0072 42.4954 11.6295 42.0855 12.1707 41.5825C12.723 41.0658 13.2129 40.4883 13.6353 39.8611L13.644 39.8475L13.6653 39.8189C13.8215 39.5916 13.9615 39.3606 14.0952 39.1284C14.3539 38.6837 14.5826 38.2217 14.7825 37.7485C15.3624 36.3662 15.7061 34.9442 16.106 33.5295C16.2822 32.9086 16.4671 32.2888 16.6908 31.6753C16.7458 31.5163 16.8095 31.3623 16.872 31.2083C17.1882 30.3936 17.5868 29.6124 18.0617 28.8784C18.098 28.8262 18.1267 28.779 18.1605 28.7318L18.1842 28.6958C18.2254 28.6362 18.2667 28.5753 18.3104 28.5157C18.4654 28.2946 18.6341 28.076 18.8128 27.8587C19.2652 27.3135 19.7626 26.8055 20.3012 26.3422C20.4924 26.1758 20.6961 26.0106 20.9086 25.8467C21.001 25.7722 21.0385 25.6505 21.001 25.5374C20.9635 25.4257 20.8573 25.3499 20.7373 25.3487C19.2065 25.34 17.5194 25.3698 15.7873 25.5288V9.50606C15.7873 6.90288 15.6736 5.82733 13.4528 2.65906H27.4595Z" fill="black"/>
<path d="M1.51217 37.9386C1.28348 38.1957 1.05853 38.4552 0.839836 38.721L0.808594 38.6676C0.987301 36.7401 1.55341 34.4846 2.89309 32.4105C3.81662 30.991 5.03758 29.7863 6.47223 28.8771C8.55423 27.5383 11.0124 26.7832 13.5068 26.3733C15.7138 26.0082 17.9457 25.9125 19.9602 25.9014C19.7878 26.0504 19.6228 26.1994 19.4641 26.351C19.2717 26.3534 19.073 26.3609 18.8768 26.3671C18.7543 26.3721 18.6368 26.3746 18.5206 26.377L18.4231 26.3808L18.0395 26.3969C17.6371 26.4155 17.2271 26.4404 16.8135 26.4714L16.701 26.4801L16.5886 26.4901L16.4586 26.5C16.3311 26.5099 16.2024 26.5211 16.0762 26.5335L15.7575 26.5658L15.5838 26.5832C15.0164 26.6441 14.4453 26.7186 13.8817 26.8155C11.3886 27.2278 8.92789 27.9804 6.84589 29.3193C5.41249 30.2284 4.19278 31.4344 3.268 32.8527C2.18076 34.5306 1.73212 36.3017 1.51217 37.9386Z" fill="black"/>
</g>
<defs>
<clipPath id="clip0_579_9168">
<rect width="203" height="47" fill="white"/>
</clipPath>
</defs>
</svg>
